<?xml version="1.0" standalone="no"?>
<!DOCTYPE svg PUBLIC "-//W3C//DTD SVG 20010904//EN"
 "http://www.w3.org/TR/2001/REC-SVG-20010904/DTD/svg10.dtd">
<svg version="1.0" xmlns="http://www.w3.org/2000/svg"
 width="225.000000pt" height="225.000000pt" viewBox="0 0 225.000000 225.000000"
 preserveAspectRatio="xMidYMid meet">
<metadata>
Created by potrace 1.10, written by Peter Selinger 2001-2011
</metadata>
<g transform="translate(0.000000,225.000000) scale(0.100000,-0.100000)"
fill="#000000" stroke="none">
<path d="M960 2165 c-219 -35 -402 -128 -567 -288 -428 -416 -428 -1088 0
-1504 126 -122 242 -194 402 -247 90 -31 241 -56 330 -56 144 0 338 47 470
113 193 96 375 279 472 472 66 132 113 327 113 470 -1 138 -41 316 -100 442
-200 427 -657 671 -1120 598z m345 -29 c28 -4 54 -11 60 -17 5 -5 24 -9 43 -9
19 0 31 -4 27 -10 -3 -6 4 -10 17 -10 13 0 42 -9 66 -20 23 -10 42 -16 42 -12
0 4 4 2 8 -4 4 -6 30 -24 57 -39 90 -52 149 -96 218 -164 59 -57 92 -102 183
-246 28 -45 54 -105 54 -125 0 -10 4 -20 10 -22 5 -1 11 -12 13 -23 2 -11 7
-27 10 -35 4 -8 9 -28 12 -45 3 -16 10 -58 16 -93 11 -62 8 -264 -5 -312 -4
-14 -9 -40 -12 -59 -2 -19 -8 -39 -11 -45 -4 -6 -9 -20 -10 -31 -2 -10 -7 -22
-11 -25 -4 -3 -16 -31 -26 -63 -11 -31 -25 -62 -33 -68 -7 -6 -13 -16 -13 -21
0 -19 -103 -161 -163 -225 -72 -77 -257 -203 -337 -230 -30 -10 -58 -22 -61
-26 -3 -5 -20 -9 -37 -9 -17 -1 -29 -5 -26 -10 5 -7 -9 -10 -61 -12 -11 0 -23
-5 -27 -11 -9 -13 -334 -14 -363 -1 -11 5 -36 10 -55 12 -19 2 -36 8 -38 14
-2 5 -17 10 -33 10 -16 0 -29 5 -29 10 0 6 -9 10 -21 10 -22 0 -141 59 -147
72 -2 5 -8 8 -13 8 -18 0 -133 82 -188 134 -54 52 -145 166 -175 221 -20 37
-39 68 -46 75 -3 3 -6 10 -7 15 -6 26 -39 111 -45 115 -3 3 -9 21 -13 40 -3
19 -12 60 -18 90 -20 95 -12 383 12 428 6 11 11 32 11 46 0 14 5 26 10 26 6 0
10 8 10 18 0 9 11 41 25 70 13 29 25 56 25 60 1 4 7 14 14 22 6 8 18 27 26 43
7 15 17 27 22 27 4 0 8 6 8 13 0 37 240 277 278 277 6 0 12 5 12 10 0 6 7 10
15 10 8 0 15 4 15 8 0 7 38 30 60 37 3 1 30 14 60 28 30 15 65 27 77 27 12 0
23 4 25 10 2 5 17 11 33 12 17 1 33 6 36 10 16 23 283 32 414 14z"/>
<path d="M1107 1714 c-1 -1 -29 -4 -63 -6 -33 -3 -65 -7 -70 -11 -6 -3 -23 -8
-37 -11 -93 -17 -277 -184 -277 -251 0 -8 -4 -15 -8 -15 -19 0 -42 -158 -42
-280 1 -122 26 -280 43 -264 4 4 7 0 7 -9 0 -69 182 -247 253 -247 9 0 17 -4
17 -9 0 -10 50 -19 160 -27 72 -6 209 11 220 27 3 4 21 10 40 13 31 6 40 1 80
-35 39 -35 50 -40 81 -36 38 5 59 21 97 74 32 44 28 72 -17 121 -37 41 -45 72
-20 88 5 3 9 14 9 25 0 10 3 19 8 19 4 0 16 29 26 65 25 88 26 324 2 411 -34
118 -100 213 -191 271 -25 15 -45 31 -45 36 0 4 -8 7 -18 7 -10 0 -22 3 -26 8
-4 4 -11 7 -14 8 -4 0 -19 4 -33 8 -25 7 -178 24 -182 20z m119 -35 c181 -33
320 -167 369 -355 41 -159 1 -425 -77 -510 l-19 -21 60 -58 61 -58 -57 -59
-57 -58 -59 59 -60 59 -66 -32 c-64 -30 -70 -31 -201 -31 l-135 0 -78 37
c-172 82 -258 225 -273 453 -25 384 237 639 592 574z"/>
<path d="M1060 1499 c-56 -11 -116 -52 -152 -104 -71 -103 -79 -349 -15 -470
53 -101 178 -154 298 -125 l53 13 -54 48 -54 48 19 23 c11 13 35 40 54 61 l35
37 52 -51 53 -52 15 38 c59 140 36 362 -48 461 -50 60 -160 92 -256 73z m148
-39 c2 -6 12 -10 21 -10 31 0 107 -97 117 -150 0 -3 6 -17 12 -32 16 -38 10
-217 -8 -245 -18 -29 -30 -28 -54 1 -13 16 -26 21 -47 18 -32 -5 -109 -67
-109 -88 0 -8 -4 -14 -10 -14 -18 0 -11 -50 10 -72 31 -34 25 -48 -20 -48 -43
0 -120 26 -120 41 0 5 -5 9 -10 9 -16 0 -69 63 -70 82 0 9 -5 18 -11 20 -5 2
-11 10 -13 18 -1 8 -8 34 -15 57 -14 50 -13 142 2 198 6 22 12 46 13 53 15 81
105 164 189 175 44 6 119 -2 123 -13z"/>
</g>
</svg>
