<?xml version="1.0" standalone="no"?>
<!DOCTYPE svg PUBLIC "-//W3C//DTD SVG 20010904//EN"
 "http://www.w3.org/TR/2001/REC-SVG-20010904/DTD/svg10.dtd">
<svg version="1.0" xmlns="http://www.w3.org/2000/svg"
 width="300.000000pt" height="300.000000pt" viewBox="0 0 300.000000 300.000000"
 preserveAspectRatio="xMidYMid meet">
<metadata>
Created by potrace 1.10, written by Peter Selinger 2001-2011
</metadata>
<g transform="translate(0.000000,300.000000) scale(0.100000,-0.100000)"
fill="#000000" stroke="none">
<path d="M1448 2818 c-25 -40 -83 -136 -130 -213 -46 -77 -158 -266 -248 -420
-89 -154 -184 -317 -211 -361 -27 -45 -49 -86 -49 -92 0 -6 -3 -12 -8 -14 -8
-3 -75 -115 -200 -333 -44 -77 -128 -223 -188 -325 -171 -294 -172 -296 -116
-319 19 -8 366 -11 1228 -9 1000 3 1204 5 1217 17 21 17 22 54 3 70 -8 7 -18
25 -21 41 -3 15 -22 54 -42 87 -19 32 -96 164 -171 293 -74 129 -164 281 -199
338 -35 57 -63 108 -63 113 0 5 -4 9 -10 9 -5 0 -10 6 -10 14 0 7 -7 19 -15
26 -8 7 -15 21 -15 31 0 10 -9 23 -20 29 -11 6 -20 20 -20 30 0 11 -4 20 -10
20 -5 0 -13 12 -16 28 -4 15 -12 34 -19 42 -6 8 -37 60 -68 115 -69 124 -183
316 -197 332 -6 7 -15 23 -20 35 -5 13 -36 68 -69 123 -33 55 -83 142 -112
193 -61 107 -113 172 -139 172 -12 0 -33 -25 -62 -72z m166 -119 c48 -85 168
-289 266 -454 98 -165 211 -358 253 -430 41 -71 166 -287 278 -480 111 -192
219 -377 241 -411 37 -60 46 -84 30 -84 -23 0 -69 70 -237 360 -313 539 -515
897 -515 910 0 5 -7 10 -15 10 -18 0 -21 7 115 -250 90 -170 203 -389 380
-735 56 -110 106 -204 111 -209 14 -15 11 -26 -6 -26 -28 0 -93 118 -435 798
-144 286 -180 348 -180 312 0 -6 17 -45 39 -88 107 -213 446 -971 437 -979
-10 -10 -37 19 -61 68 -19 37 -385 859 -420 944 -8 19 -9 18 -12 -5 -2 -14 7
-50 20 -80 14 -30 81 -201 151 -380 70 -179 142 -363 161 -410 19 -46 32 -86
30 -88 -11 -11 -36 11 -53 45 -32 63 -342 887 -342 909 0 11 14 42 31 68 21
34 27 52 20 59 -6 6 -12 9 -13 6 -56 -90 -68 -122 -58 -160 5 -19 51 -158 103
-309 51 -151 112 -333 134 -405 23 -71 44 -138 48 -148 13 -32 -22 -18 -38 16
-18 37 -79 219 -206 614 -94 289 -127 380 -137 370 -3 -3 6 -41 20 -84 31 -95
182 -625 222 -780 16 -61 25 -115 21 -119 -18 -19 -41 34 -83 197 -26 96 -78
289 -116 429 -39 140 -74 270 -78 288 -5 19 -11 36 -14 39 -14 14 -3 -49 35
-205 60 -246 159 -700 159 -731 0 -2 -7 2 -14 9 -8 6 -22 33 -30 58 -16 47
-118 509 -201 907 -24 116 -58 275 -75 355 -85 394 -93 446 -67 438 6 -3 52
-74 101 -159z m-124 71 c0 -29 -140 -271 -701 -1207 -54 -92 -99 -171 -99
-175 0 -18 17 2 55 64 175 286 751 1158 765 1158 34 0 7 -45 -365 -605 -361
-545 -391 -592 -381 -603 3 -3 7 -3 9 -1 2 2 23 36 47 74 110 173 704 985 721
985 21 0 5 -42 -40 -106 -26 -38 -153 -208 -280 -379 -259 -347 -421 -570
-421 -580 0 -16 38 26 128 145 212 276 603 756 634 778 16 11 18 11 18 -6 0
-26 -35 -73 -257 -339 -327 -393 -483 -586 -483 -597 0 -14 23 11 166 175 339
387 588 657 600 647 19 -19 0 -41 -425 -502 -247 -268 -311 -341 -311 -353 0
-23 47 -14 82 14 30 26 341 306 587 530 63 58 107 91 112 86 6 -6 7 -17 4 -25
-3 -8 -99 -98 -212 -199 -114 -101 -272 -243 -352 -314 -80 -72 -220 -196
-311 -275 -90 -80 -216 -191 -278 -247 -176 -157 -233 -189 -186 -105 86 156
1069 1838 1119 1916 33 52 55 70 55 46z m150 -702 c0 -14 -564 -576 -669 -667
-40 -34 -76 -60 -79 -57 -12 13 711 736 735 736 7 0 13 -5 13 -12z m38 -298
c37 -150 122 -557 122 -584 0 -14 -3 -26 -8 -26 -39 0 -682 213 -682 226 0 20
530 488 540 477 4 -4 17 -46 28 -93z m-389 -496 c390 -125 726 -234 906 -294
94 -32 249 -83 344 -114 173 -56 206 -71 196 -86 -3 -5 -532 -9 -1176 -10
-950 0 -1170 2 -1167 12 7 21 144 26 826 27 354 1 641 5 638 10 -3 4 -115 11
-248 15 -213 6 -476 18 -955 42 -73 4 -133 11 -133 16 0 30 53 30 502 4 555
-32 629 -33 705 -6 32 11 66 20 76 20 10 0 15 5 12 10 -9 15 -40 12 -115 -11
-81 -24 -85 -24 -765 46 -292 30 -300 32 -283 52 9 11 27 13 87 8 102 -9 408
-41 611 -65 250 -29 320 -33 320 -21 0 6 -2 11 -4 11 -9 0 -355 51 -496 74
-85 13 -207 32 -270 41 -139 20 -150 22 -150 41 0 24 62 17 497 -58 493 -84
502 -85 544 -64 18 9 42 16 55 16 13 0 26 5 30 11 5 8 -7 9 -42 4 -136 -20
-147 -18 -914 146 -88 18 -86 17 -67 36 19 19 15 20 302 -46 221 -50 575 -121
603 -120 24 0 25 1 7 9 -17 8 -473 126 -745 193 -47 11 -87 22 -89 24 -3 2 2
11 11 20 19 19 -14 26 413 -92 154 -42 312 -85 352 -96 39 -10 83 -23 98 -29
33 -13 72 -13 60 -1 -6 5 -68 27 -140 49 -71 22 -240 75 -375 117 -135 43
-267 84 -293 92 -40 12 -46 17 -36 29 6 8 16 14 22 14 6 0 117 -34 246 -76z"/>
<path d="M1825 2075 c-20 -24 -35 -51 -33 -60 2 -10 18 4 46 40 23 30 42 57
42 60 0 16 -23 -1 -55 -40z"/>
<path d="M740 1365 c-30 -32 -10 -33 27 0 20 17 23 24 12 25 -8 0 -26 -11 -39
-25z"/>
<path d="M1834 962 c10 -16 66 -26 79 -13 8 8 7 11 -5 11 -8 0 -30 3 -48 7
-23 4 -31 3 -26 -5z"/>
</g>
</svg>
