<?xml version="1.0" standalone="no"?>
<!DOCTYPE svg PUBLIC "-//W3C//DTD SVG 20010904//EN"
 "http://www.w3.org/TR/2001/REC-SVG-20010904/DTD/svg10.dtd">
<svg version="1.0" xmlns="http://www.w3.org/2000/svg"
 width="96.000000pt" height="96.000000pt" viewBox="0 0 96.000000 96.000000"
 preserveAspectRatio="xMidYMid meet">
<metadata>
Created by potrace 1.10, written by Peter Selinger 2001-2011
</metadata>
<g transform="translate(0.000000,96.000000) scale(0.100000,-0.100000)"
fill="#000000" stroke="none">
<path d="M152 944 l-22 -15 0 -449 0 -449 22 -15 c19 -14 68 -16 329 -16 278
0 309 2 328 17 20 18 21 25 22 391 l0 373 -81 89 -82 90 -247 0 c-207 0 -250
-2 -269 -16z m478 -113 c0 -92 2 -94 98 -90 l57 3 3 -347 2 -347 -310 0 -310
0 0 430 0 430 230 0 230 0 0 -79z m120 -33 c0 -4 -16 -8 -35 -8 -34 0 -35 1
-35 42 l0 42 35 -34 c19 -19 35 -38 35 -42z"/>
<path d="M245 690 c-16 -26 14 -30 231 -30 209 0 225 1 222 18 -3 15 -23 17
-225 20 -143 1 -224 -1 -228 -8z"/>
<path d="M240 555 c0 -8 3 -15 8 -15 4 0 106 -1 227 -1 194 -1 220 1 223 15 3
14 -21 16 -227 16 -199 0 -231 -2 -231 -15z"/>
<path d="M244 439 c-14 -24 29 -29 236 -26 195 2 215 4 218 20 3 16 -13 17
-222 17 -154 0 -227 -3 -232 -11z"/>
<path d="M244 319 c-15 -25 21 -29 232 -27 199 3 219 5 222 21 3 16 -13 17
-222 17 -151 0 -227 -4 -232 -11z"/>
</g>
</svg>
