<?xml version="1.0" standalone="no"?>
<!DOCTYPE svg PUBLIC "-//W3C//DTD SVG 20010904//EN"
 "http://www.w3.org/TR/2001/REC-SVG-20010904/DTD/svg10.dtd">
<svg version="1.0" xmlns="http://www.w3.org/2000/svg"
 width="222.000000pt" height="213.000000pt" viewBox="0 0 222.000000 213.000000"
 preserveAspectRatio="xMidYMid meet">
<metadata>
Created by potrace 1.10, written by Peter Selinger 2001-2011
</metadata>
<g transform="translate(0.000000,213.000000) scale(0.100000,-0.100000)"
fill="#000000" stroke="none">
<path d="M938 1943 l-156 -158 -7 -508 -7 -507 -237 229 -236 229 -129 -122
-128 -121 173 -156 c96 -86 334 -301 529 -478 l355 -321 3 521 c1 286 1 752 0
1035 l-3 514 -157 -157z m138 -1841 c-9 -9 -79 48 -225 185 -31 28 -68 62 -82
75 -15 13 -62 55 -105 95 -44 39 -90 81 -104 93 -32 27 -162 146 -252 230 -39
36 -80 72 -91 80 -41 29 -127 115 -127 127 0 14 189 193 204 193 7 0 56 -44
111 -98 240 -234 337 -322 355 -322 11 0 21 1 22 3 3 3 17 450 23 758 l6 256
132 129 132 129 3 -964 c1 -530 0 -966 -2 -969z"/>
<path d="M1120 1067 l0 -1039 39 34 c21 18 260 233 530 478 l493 445 -129 121
-128 122 -236 -229 -237 -229 -7 509 -7 509 -159 158 -159 159 0 -1038z m196
796 l91 -94 8 -487 c4 -268 11 -495 16 -504 6 -10 16 -18 24 -18 33 0 38 5
317 275 67 66 131 126 140 133 18 14 8 22 158 -123 l62 -59 -65 -61 c-36 -33
-92 -83 -124 -112 -32 -29 -76 -69 -99 -90 -53 -50 -196 -178 -248 -223 -37
-32 -79 -70 -171 -155 -46 -43 -173 -158 -219 -200 -22 -19 -44 -35 -48 -35
-4 0 -8 430 -8 956 l0 956 38 -32 c20 -18 78 -75 128 -127z"/>
</g>
</svg>
